<svg viewBox="0 0 416 448" width="416" height="448">
  <path d="M32 416h72v-72H32v72zm88 0h80v-72h-80v72zm-88-88h72v-80H32v80zm88 0h80v-80h-80v80zm-88-96h72v-72H32v72zm184 184h80v-72h-80v72zm-96-184h80v-72h-80v72zm192 184h72v-72h-72v72zm-96-88h80v-80h-80v80zm-88-216V40c0-4.25-3.75-8-8-8h-16c-4.25 0-8 3.75-8 8v72c0 4.25 3.75 8 8 8h16c4.25 0 8-3.75 8-8zm184 216h72v-80h-72v80zm-96-96h80v-72h-80v72zm96 0h72v-72h-72v72zm8-120V40c0-4.25-3.75-8-8-8h-16c-4.25 0-8 3.75-8 8v72c0 4.25 3.75 8 8 8h16c4.25 0 8-3.75 8-8zm96-16v320c0 17.5-14.5 32-32 32H32c-17.5 0-32-14.5-32-32V96c0-17.5 14.5-32 32-32h32V40c0-22 18-40 40-40h16c22 0 40 18 40 40v24h96V40c0-22 18-40 40-40h16c22 0 40 18 40 40v24h32c17.5 0 32 14.5 32 32z"/>
</svg>
