<svg xmlns="http://www.w3.org/2000/svg" width="768" height="768"><path d="M576 384c-19.2 0-32 12.8-32 32v192c0 19.2-12.8 32-32 32H160c-19.2 0-32-12.8-32-32V256c0-19.2 12.8-32 32-32h192c19.2 0 32-12.8 32-32s-12.8-32-32-32H160c-54.4 0-96 41.6-96 96v352c0 54.4 41.6 96 96 96h352c54.4 0 96-41.6 96-96V416c0-19.2-12.8-32-32-32z"/><path d="M700.8 83.2c-3.2-6.4-9.6-12.8-16-16-3.2-3.2-9.6-3.2-12.8-3.2H480c-19.2 0-32 12.8-32 32s12.8 32 32 32h115.2L297.6 425.6c-12.8 12.8-12.8 32 0 44.8 6.4 6.4 12.8 9.6 22.4 9.6s16-3.2 22.4-9.6L640 172.8V288c0 19.2 12.8 32 32 32s32-12.8 32-32V96c0-3.2 0-9.6-3.2-12.8z"/></svg>