<svg viewBox="0 0 30 30" xmlns="http://www.w3.org/2000/svg"><path d="M15.649 21.044C14.091 20.498 12.477 20.431 12 19v-2c.45-.223 1.736-1.755 1.872-2.952.08-.283.142-1.295.142-1.523 0-1.249-.019-3.831.763-5.852-.273-1.358-.986-2.502-2.515-2.653C11.853 3.343 10.805 3 9.442 3c-5.451.094-6.008 3.873-4.914 8.214-.212.122-.562.51-.474 1.198.164 1.283.72 1.608 1.074 1.635C5.263 15.245 6.55 16.777 7 17v2c-1 3-7 0-7 8h12c0-3.548 1.99-5.077 3.649-5.956z"/><path d="M14 27c0-5 5-4 6-6.707v-1.275c-3.621 0-4.626-1.491-4.626-1.491C17.266 15.953 13.688 5 20.13 5c0 0 .87-1 1.994-1C30 4 26.446 15.893 28.483 17.565c0 0-.844 1.44-4.483 1.44v1.288C25 23 30 22 30 27H14z"/></svg>