<svg xmlns="http://www.w3.org/2000/svg" width="1024" height="1024"><path fill="#314359" d="M936.533 813.312a34.29 34.29 0 0 1-18.987-5.76c-15.744-10.667-19.84-32-9.6-47.36 31.488-46.677 48-101.589 48-158.677s-16.512-112-48-158.763c-10.624-15.701-6.187-36.949 9.216-47.189 16-10.624 37.12-6.229 47.275 9.131 39.125 58.24 59.563 126.72 59.563 197.12 0 70.315-20.437 138.837-59.563 197.077-5.76 10.197-16.64 15.317-27.52 15.317l-.384-.896z"/><path fill="#314359" d="M838.827 758.101c-6.528 0-13.141-1.92-18.987-5.931-15.744-10.197-19.755-31.317-9.173-46.677 20.864-30.763 31.872-65.92 31.872-103.68 0-36.48-11.008-72.32-31.872-103.723-10.581-15.36-6.571-36.437 9.173-46.72s36.565-6.4 47.189 9.6c28.544 42.24 43.563 91.52 43.563 141.397 0 51.243-15.019 99.84-43.563 141.44-6.229 10.24-17.323 15.36-28.203 15.36V758.1zM679.68 452.907C666.283 316.502 550.997 209.75 410.88 209.75c-116.096 0-218.88 74.581-255.787 182.741C67.754 405.376 0 480.811 0 571.734c0 100.011 81.579 181.504 181.76 181.504h465.408c83.797 0 152.149-68.011 152.149-151.765 0-72.789-51.2-133.504-119.68-148.48v-.085zm-32.512 232.362h-465.28c-62.549 0-113.877-50.816-113.877-113.408 0-62.507 50.901-113.408 113.877-113.408 30.293 0 58.923 12.16 80.469 33.323 12.8 13.397 34.603 13.397 48 0 12.8-12.843 12.8-34.603 0-48-23.68-23.125-52.523-39.723-83.84-47.403 32-71.04 103.68-118.357 183.68-118.357 111.317 0 202.24 90.837 202.24 202.155 0 21.845-3.2 42.923-10.24 63.403-5.76 17.92 3.84 37.077 21.76 43.52 3.157 1.28 7.04 1.92 10.24 1.92 14.08 0 27.52-9.003 32-23.04 4.48-13.44 7.68-26.88 9.6-40.96 31.317 12.16 53.76 42.88 53.76 78.08 0 46.763-37.76 84.437-83.84 84.437l1.451-2.261z"/></svg>