<svg xmlns="http://www.w3.org/2000/svg" width="1024" height="1024"><path fill="#f30" d="M50.133 521.6c-2.176 0-4.011 1.963-4.309 4.267l-9.941 91.904 9.941 89.813c.299 2.475 2.133 4.181 4.309 4.181 2.133 0 3.84-1.707 4.224-4.181l10.88-89.813-11.52-91.904c0-2.432-1.92-4.267-3.84-4.267zM11.52 556.928c-2.56 0-3.883 1.579-4.437 4.011L0 617.771l7.04 55.808c0 2.347 1.92 4.011 3.84 4.011s3.797-1.92 4.437-4.437l8.96-56.277-8.96-56.917c0-2.603-1.877-3.84-3.84-3.84zm78.037-53.248c-2.603 0-5.12 1.92-5.12 4.437l-8.96 109.355 9.6 104.875c0 2.56 1.92 5.12 5.077 5.12 2.603 0 4.48-2.603 5.163-5.12l10.837-105.557-10.837-108.715c-.683-2.56-2.603-5.12-5.163-5.12zm40.918-4.523c-3.2 0-5.76 2.56-6.4 5.76l-8.235 112.64 8.96 108.544c.683 3.285 3.2 5.888 6.357 5.888 3.2 0 5.76-2.603 6.4-6.4l10.24-108.032-10.24-111.915c0-3.2-2.56-5.76-5.76-5.76l-1.323-.725zm49.28 15.36c-.213-3.84-3.2-6.357-6.784-6.357-3.84 0-6.741 2.56-6.997 6.357l-9.259 103.68 8.533 109.355c0 3.84 3.2 6.699 6.784 6.699 3.157 0 6.315-2.901 6.315-6.741l9.685-109.355-9.685-104.277 1.408.64zm34.517-72.917c-4.309 0-7.68 3.84-7.68 7.723l-8.96 168.832 7.979 109.355c0 3.84 3.413 6.997 7.68 6.997 4.011 0 7.424-3.84 7.68-7.68l8.917-109.355L220.971 448c-.341-4.437-3.755-7.68-7.68-7.68zm39.936-40.277c-4.48 0-8.32 3.84-8.661 8.277l-7.68 207.872 7.04 108.715c0 5.12 3.84 8.917 8.32 8.917 4.437 0 8.277-3.797 8.96-8.917l8.235-108.715-8.192-207.189c-.683-5.12-4.48-8.96-8.96-8.96zm41.259-19.158c-5.163 0-9.003 3.797-9.6 8.917l-7.04 225.067 7.04 107.52c.597 5.077 4.437 9.6 9.6 9.6 5.077 0 9.6-4.48 9.6-9.6l8.32-107.52-8.363-225.067c0-5.12-4.48-9.6-9.6-9.6zm53.077 1.238c0-5.76-4.48-10.24-10.24-10.24-5.077 0-10.24 4.48-10.24 10.24l-6.357 232.149 6.357 106.795c.683 5.76 5.163 10.24 10.923 10.24s10.24-4.48 10.24-10.24l6.997-106.795-6.997-232.789-.683.64zm31.957-5.718c-5.76 0-10.88 5.077-10.88 10.837l-6.4 227.072 6.4 105.515c0 6.4 5.12 10.88 10.88 10.88s10.88-5.12 10.88-11.52l6.4-105.557-7.04-226.432c0-6.315-5.12-11.52-11.563-11.52zm41.558 6.358c-6.997 0-12.117 5.76-12.117 12.16l-4.395 219.435 5.76 105.557c0 6.357 5.077 11.819 12.117 11.819 6.357 0 11.563-5.12 12.117-12.16l5.163-104.235-5.76-218.112c-.512-6.997-5.76-12.16-12.16-12.16zm51.242-38.016c-1.92-1.237-4.48-1.877-7.04-1.877s-5.077.64-7.04 1.877c-3.84 2.304-6.357 6.4-6.357 10.88v2.603l-4.437 258.048 4.907 104.491v.341c.341 2.56 1.28 5.76 3.157 7.68 2.475 2.603 6.059 4.437 9.984 4.437 3.413 0 6.741-1.877 8.917-3.84 2.475-2.56 3.883-5.76 3.883-9.6l.64-10.24 4.992-93.995-5.76-259.669c0-4.437-2.603-8.235-5.76-10.197l-.085-.939zm42.923-23.339c-1.92-1.92-3.84-2.603-6.4-2.603-3.157 0-6.357.683-8.917 2.603-3.2 2.603-5.077 6.4-5.077 10.24v1.237l-5.845 281.984 3.243 51.84 2.603 50.56c0 6.997 6.315 13.397 13.995 13.397 7.723 0 14.08-6.4 14.08-14.037l6.4-102.997-6.4-283.179c0-5.12-3.157-9.429-7.04-11.819zm381.824 158.379c-17.28 0-33.92 3.669-48.597 9.899-10.24-113.237-104.96-202.069-221.355-202.069-28.117 0-55.68 5.76-80.597 15.317-9.6 3.84-11.52 7.68-12.16 15.317v399.701c.683 7.68 6.4 14.08 14.08 14.72h349.227c69.077.683 125.355-54.955 125.355-124.672s-56.277-125.952-125.355-125.952z"/></svg>